<?xml version="1.0" encoding="UTF-8"?>
<svg width="130px" height="28px" viewBox="0 0 130 28" version="1.1" xmlns="http://www.w3.org/2000/svg" xmlns:xlink="http://www.w3.org/1999/xlink">
    <title>moovit logo primary</title>
    <g id="moovit-logo-primary" stroke="none" stroke-width="1" fill="none" fill-rule="evenodd">
        <path d="M62.2575151,7.04225316 C56.5584878,7.04225316 52.3489462,11.3966946 52.3489462,17.2926418 C52.3489462,23.1870003 56.5584878,27.541441 62.2575151,27.541441 C67.9565423,27.541441 72.166124,23.1869995 72.166124,17.2926418 C72.166124,11.396693 67.956539,7.04225316 62.2575151,7.04225316 Z M62.2575151,23.4409512 C59.0995446,23.4409512 56.7652247,20.8283191 56.7652247,17.2910523 C56.7652247,13.7553742 59.0995446,11.1410732 62.2575151,11.1410732 C65.4155256,11.1410732 67.7498054,13.7553734 67.7498054,17.2910523 C67.7498054,20.8283191 65.4155215,23.4409512 62.2575151,23.4409512 Z M83.3409445,7.04225316 C77.6419173,7.04225316 73.4323756,11.3966946 73.4323756,17.2926418 C73.4323756,23.1870003 77.6419173,27.541441 83.3409445,27.541441 C89.0399718,27.541441 93.2495535,23.1869995 93.2495535,17.2926418 C93.2495535,11.396693 89.0399726,7.04225316 83.3409445,7.04225316 Z M83.3409445,23.4409512 C80.1829741,23.4409512 77.8486542,20.8283191 77.8486542,17.2910523 C77.8486542,13.7553742 80.1829741,11.1410732 83.3409445,11.1410732 C86.4989551,11.1410732 88.8332349,13.7553734 88.8332349,17.2910523 C88.8332349,20.8283191 86.4989551,23.4409512 83.3409445,23.4409512 Z M118.518403,2.65848312 C118.518403,4.00470012 117.380549,5.09696623 115.977385,5.09696623 C114.574178,5.09696623 113.436329,4.00470012 113.436329,2.65848312 C113.436329,1.31059727 114.574181,0.22 115.977387,0.22 C117.380554,0.22 118.518403,1.31059727 118.518403,2.65848312 Z M118.113076,9.17790247 L118.113076,25.4057908 C118.113076,26.5853108 117.156886,27.5415007 115.977366,27.5415007 C114.797846,27.5415007 113.841656,26.5853108 113.841656,25.4057908 L113.841656,9.17790247 C113.841656,7.99838251 114.797846,7.04219265 115.977366,7.04219265 C117.156886,7.04219265 118.113076,7.99838251 118.113076,9.17790247 Z M50.7978165,14.7646594 L50.7978165,25.4204155 C50.7941034,26.5973157 49.8389932,27.5494173 48.6620871,27.5494173 C47.485181,27.5494173 46.5300708,26.5973157 46.5263576,25.4204155 L46.5263576,14.5937696 C46.5263576,12.5312443 45.1378546,11.1427421 43.0753694,11.1427421 C41.1675598,11.1427421 39.6227523,12.8031616 39.6227523,14.8557482 L39.6227523,25.4204155 C39.6200266,26.5975551 38.6650005,27.5503723 37.4878577,27.5503723 C36.3107149,27.5503723 35.3556889,26.5975551 35.3529631,25.4204155 L35.3529631,14.8557482 C35.3529631,12.8031583 33.8081556,11.1427421 31.9003461,11.1427421 C29.8378609,11.1427421 28.447729,12.5312443 28.447729,14.5937696 L28.447729,25.4204155 C28.4449078,26.5974876 27.4899095,27.5503723 26.312834,27.5503723 C25.1357585,27.5503723 24.1807603,26.5974876 24.177939,25.4204155 L24.177939,14.7646594 C24.177939,10.15142 27.1308014,7.04217302 31.5145714,7.04217302 C34.1158373,7.04217302 36.2124606,8.1361088 37.487063,9.99022759 C38.7632549,8.1361088 40.8599182,7.04217302 43.4611841,7.04217302 C47.8449141,7.04217302 50.7978165,10.15142 50.7978165,14.7646594 Z M111.861959,9.18767922 C111.861959,9.45562563 111.811559,9.72118176 111.713841,9.9706741 L111.6894,10.0292536 L111.666627,10.0764669 L104.256751,26.2424372 L104.256751,26.2441061 C103.887355,27.0419734 103.08818,27.5526434 102.20895,27.5526434 C101.32972,27.5526434 100.530545,27.0419734 100.16115,26.2441061 L100.16115,26.2424372 L92.751269,10.0764669 C92.7496402,10.0732085 92.7480107,10.0683598 92.7463811,10.0651014 C92.6215831,9.78944196 92.5572045,9.49027303 92.5575658,9.18768003 C92.5604824,8.48267549 92.9098133,7.82416243 93.4918994,7.42639903 C94.0164289,7.06922034 94.6727629,6.96414903 95.2825813,7.13973202 C95.8923998,7.31531501 96.3923685,7.75331673 96.6466507,8.33473608 L102.208966,21.0822675 L107.771242,8.33473608 C108.176573,7.41001509 109.17422,6.89560884 110.162617,7.10169631 C111.151015,7.30778377 111.859954,8.17802445 111.861959,9.18767676 L111.861959,9.18767922 Z M130,25.4920309 C129.995102,26.6218695 129.080389,27.5365653 127.95055,27.541441 L127.887082,27.541441 C125.696032,27.541441 123.861467,26.7649636 122.575459,25.4106395 C121.287861,24.0563146 120.55045,22.125654 120.55045,19.8190339 L120.55045,5.28256086 C120.549978,4.51952164 120.956783,3.8142422 121.617516,3.4325862 C122.278249,3.05093021 123.092441,3.05093021 123.753174,3.4325862 C124.413907,3.8142422 124.820712,4.51952164 124.82024,5.28256086 L124.821869,5.28256086 L124.821869,7.43617414 L127.421506,7.43617414 C128.086179,7.43818712 128.708668,7.76216358 129.091656,8.30540912 C129.597384,9.01212189 129.597384,9.96230237 129.091656,10.6690151 C128.707727,11.2109776 128.085673,11.5341353 127.421506,11.5366606 L124.821869,11.5366606 L124.821869,19.8190339 L124.82024,19.9899246 C124.82024,21.9791647 126.112725,23.341676 128.054713,23.4361025 L128.054713,23.4442104 C129.14311,23.5039982 129.996149,24.4019999 130,25.4920309 Z" id="logotype" fill="#11100D" fill-rule="nonzero"></path>
        <g id="dude" transform="translate(0.000000, 0.784750)" fill-rule="nonzero">
            <path d="M10.7394451,0 C4.8084358,0 0,4.83375461 0,10.7962903 C0,18.8931483 10.7394451,26.9904854 10.7394451,26.9904854 C10.7394451,26.9904854 21.4788901,18.8931483 21.4788901,10.7962903 C21.4788901,4.83375461 16.6704535,0 10.7394451,0" id="Path" fill="#FF6400"></path>
            <path d="M16.8265588,9.77760614 C16.8240535,10.4175829 16.3036498,10.9345855 15.6636704,10.9328983 C15.0236911,10.9312028 14.5060273,10.4114568 14.5069039,9.7714758 C14.5077827,9.13149478 15.0268702,8.61317067 15.6668518,8.6132348 C16.3082961,8.6153195 16.8270487,9.13615865 16.8265588,9.77760614 L16.8265588,9.77760614 Z M5.89564633,8.61322438 C5.4241397,8.61124724 4.99795894,8.89375933 4.81616506,9.328815 C4.63437117,9.76387066 4.73283993,10.2656146 5.06557845,10.5996918 C5.39831696,10.9337689 5.89966155,11.0342514 6.33544361,10.8542057 C6.77122566,10.67416 7.05544658,10.2491169 7.05535269,9.77760614 C7.0559805,9.13610198 6.53714785,8.61518203 5.89564633,8.61322438 L5.89564633,8.61322438 Z M13.9398847,12.0389402 C13.7593429,12.0290494 13.5823309,12.0916921 13.4481987,12.2129429 C13.4363034,12.2234392 12.458763,13.07246 10.8859752,13.07246 C9.3103886,13.07246 8.10496588,12.102384 8.09446959,12.0937536 C7.95552865,11.9776947 7.77606169,11.9217967 7.59579096,11.9384317 C7.41552024,11.9550667 7.24931309,12.0428629 7.13395692,12.1823878 C6.89335845,12.4734503 6.93240015,12.904056 7.22142432,13.1470992 C7.38143277,13.2795836 8.84319395,14.442089 10.8859752,14.442089 C12.9915004,14.442089 14.3044501,13.2823824 14.3592635,13.2329353 C14.6393294,12.9799418 14.662969,12.5484326 14.4122159,12.2663589 C14.2915874,12.1303509 14.1214353,12.0484252 13.939888,12.0389402 L13.9398847,12.0389402 Z" id="face" fill="#11100D"></path>
        </g>
    </g>
</svg>